<?xml version="1.0" encoding="UTF-8"?>
<svg version="1.1" xmlns="http://www.w3.org/2000/svg" width="2084" height="2084">
<path d="M0 0 C687.72 0 1375.44 0 2084 0 C2084 687.72 2084 1375.44 2084 2084 C1396.28 2084 708.56 2084 0 2084 C0 1396.28 0 708.56 0 0 Z " fill="#FEC513" transform="translate(0,0)"/>
<path d="M0 0 C132.66 0 265.32 0 402 0 C403.32 4.95 404.64 9.9 406 15 C406.72392077 17.56398693 407.45223332 20.12674363 408.1875 22.6875 C411.28449135 33.65458254 413.96700456 44.73214706 416.7019043 55.79370117 C419.64406882 67.68059772 422.74064971 79.51569641 426.02783203 91.3125 C429.50844443 103.84373517 432.64788088 116.45622552 435.75268555 129.0847168 C437.39625341 135.74733109 439.0761814 142.38176584 440.9921875 148.97265625 C443.39456986 157.23699378 445.44131106 165.58252244 447.5 173.9375 C450.83624298 187.44601323 454.29259401 200.90774633 458.02783203 214.3125 C461.50844443 226.84373517 464.64788088 239.45622552 467.75268555 252.0847168 C469.39625341 258.74733109 471.0761814 265.38176584 472.9921875 271.97265625 C475.39456986 280.23699378 477.44131106 288.58252244 479.5 296.9375 C483.10001431 311.51402852 486.89490077 326.02207394 490.875 340.5 C494.01825621 351.97359907 497.02247459 363.48243385 500 375 C500.66 375 501.32 375 502 375 C503.32810124 373.71724025 503.32810124 373.71724025 504.65234375 371.9921875 C505.17570312 371.3425 505.6990625 370.6928125 506.23828125 370.0234375 C506.79902344 369.31445312 507.35976562 368.60546875 507.9375 367.875 C508.52015625 367.14796875 509.1028125 366.4209375 509.703125 365.671875 C513.78084357 360.5725058 517.81453832 355.43805949 521.83374023 350.29248047 C525.33563383 345.81738254 528.90737603 341.402467 532.5 337 C538.42465971 329.73667048 544.23269816 322.38856385 550 315 C556.30743245 306.91946795 562.6824297 298.9035386 569.16357422 290.96142578 C572.65507316 286.6758874 576.0980478 282.35688616 579.5 278 C583.9820011 272.25989332 588.55956557 266.60306754 593.1640625 260.9609375 C597.11186336 256.11505872 600.98798898 251.21829857 604.83374023 246.29125977 C608.35375146 241.79336154 611.94856888 237.36014298 615.5625 232.9375 C619.44981773 228.17826054 623.27339891 223.38625653 627 218.5 C631.26207899 212.91163386 635.66639299 207.45371487 640.11328125 202.01171875 C643.62336198 197.71063392 647.08417075 193.37623814 650.5 189 C654.9818886 183.25980746 659.55956778 177.60306483 664.1640625 171.9609375 C668.11186336 167.11505872 671.98798898 162.21829857 675.83374023 157.29125977 C679.35375146 152.79336154 682.94856888 148.36014298 686.5625 143.9375 C690.44981773 139.17826054 694.27339891 134.38625653 698 129.5 C702.26207899 123.91163386 706.66639299 118.45371487 711.11328125 113.01171875 C714.62336198 108.71063392 718.08417075 104.37623814 721.5 100 C725.9818886 94.25980746 730.55956778 88.60306483 735.1640625 82.9609375 C739.11186336 78.11505872 742.98798898 73.21829857 746.83374023 68.29125977 C750.35375146 63.79336154 753.94856888 59.36014298 757.5625 54.9375 C761.44981773 50.17826054 765.27339891 45.38625653 769 40.5 C773.25514385 34.92072711 777.65234881 29.47178162 782.09130859 24.03808594 C785.81346767 19.47615128 789.49031455 14.88193653 793.125 10.25 C793.79873657 9.39160522 793.79873657 9.39160522 794.48608398 8.51586914 C797.02175438 5.29727306 797.02175438 5.29727306 799.2256549 1.85009789 C801 0 801 0 803.94381922 -0.49679399 C805.76932471 -0.49451566 805.76932471 -0.49451566 807.6317091 -0.49219131 C808.31220848 -0.49680669 808.99270786 -0.50142207 809.69382843 -0.50617731 C811.9910308 -0.51682765 814.28712827 -0.49877078 816.58427429 -0.48101807 C818.24091108 -0.4827612 819.89754681 -0.48626137 821.55417663 -0.49137473 C826.11956985 -0.50034923 830.68459008 -0.48427732 835.24993575 -0.46426249 C840.16812953 -0.44703733 845.08630116 -0.45283068 850.0045166 -0.45587158 C858.52998044 -0.45797208 867.05532212 -0.44538983 875.58075523 -0.42292023 C887.90717932 -0.39045384 900.23354415 -0.37999871 912.56000636 -0.37496826 C932.55737174 -0.36620718 952.55467196 -0.33956956 972.55200195 -0.30175781 C991.98103509 -0.26505875 1011.41005055 -0.23673669 1030.83911133 -0.21972656 C1032.03610838 -0.21867567 1033.23310544 -0.21762477 1034.46637513 -0.21654204 C1040.47117569 -0.211322 1046.47597638 -0.20626714 1052.48077714 -0.20129442 C1102.32056314 -0.15980707 1152.16027839 -0.08933653 1202 0 C1201.69978443 1.87955179 1201.39581662 3.75850442 1201.09033203 5.63720703 C1200.92147491 6.68361359 1200.7526178 7.73002014 1200.5786438 8.80813599 C1199.65258597 13.91637471 1198.27177742 18.87871383 1196.875 23.875 C1196.23912083 26.19388364 1195.60372198 28.51289903 1194.96875 30.83203125 C1194.64132812 32.02135254 1194.31390625 33.21067383 1193.9765625 34.43603516 C1192.41435344 40.13731712 1190.8946944 45.84976572 1189.375 51.5625 C1189.05595703 52.7585083 1188.73691406 53.9545166 1188.40820312 55.18676758 C1186.48096448 62.41385453 1184.56444407 69.64373401 1182.65438843 76.87538147 C1181.51399122 81.19255815 1180.37211197 85.50934247 1179.23028564 89.82614136 C1178.66989234 91.94664196 1178.11025341 94.06734211 1177.55145264 96.18826294 C1174.49559493 107.78632237 1171.35677187 119.35088471 1168.0309906 130.87460327 C1166.18843558 137.27922449 1164.49520221 143.70727056 1162.9375 150.1875 C1161.32607007 156.85795922 1159.60416641 163.48656182 1157.75 170.09375 C1155.64985682 177.58220832 1153.63751167 185.09149558 1151.66015625 192.61328125 C1151.22164589 194.28060555 1151.22164589 194.28060555 1150.77427673 195.98161316 C1149.56751175 200.57410015 1148.36250956 205.16704582 1147.15942383 209.76049805 C1143.89512454 222.21621373 1140.57191617 234.64438683 1136.9960022 247.01455688 C1135.16285088 253.37198531 1133.48399615 259.75388914 1131.9375 266.1875 C1130.32607007 272.85795922 1128.60416641 279.48656182 1126.75 286.09375 C1124.64985682 293.58220832 1122.63751167 301.09149558 1120.66015625 308.61328125 C1120.22164589 310.28060555 1120.22164589 310.28060555 1119.77427673 311.98161316 C1118.56751175 316.57410015 1117.36250956 321.16704582 1116.15942383 325.76049805 C1112.89512454 338.21621373 1109.57191617 350.64438683 1105.9960022 363.01455688 C1104.16285088 369.37198531 1102.48399615 375.75388914 1100.9375 382.1875 C1099.32607007 388.85795922 1097.60416641 395.48656182 1095.75 402.09375 C1093.64985682 409.58220832 1091.63751167 417.09149558 1089.66015625 424.61328125 C1089.22164589 426.28060555 1089.22164589 426.28060555 1088.77427673 427.98161316 C1087.56751175 432.57410015 1086.36250956 437.16704582 1085.15942383 441.76049805 C1081.89512454 454.21621373 1078.57191617 466.64438683 1074.9960022 479.01455688 C1073.16285088 485.37198531 1071.48399615 491.75388914 1069.9375 498.1875 C1068.32607007 504.85795922 1066.60416641 511.48656182 1064.75 518.09375 C1062.64985682 525.58220832 1060.63751167 533.09149558 1058.66015625 540.61328125 C1058.36781601 541.72483078 1058.07547577 542.83638031 1057.77427673 543.98161316 C1056.56751175 548.57410015 1055.36250956 553.16704582 1054.15942383 557.76049805 C1050.89512454 570.21621373 1047.57191617 582.64438683 1043.9960022 595.01455688 C1042.16285088 601.37198531 1040.48399615 607.75388914 1038.9375 614.1875 C1037.32607007 620.85795922 1035.60416641 627.48656182 1033.75 634.09375 C1031.64985682 641.58220832 1029.63751167 649.09149558 1027.66015625 656.61328125 C1027.36781601 657.72483078 1027.07547577 658.83638031 1026.77427673 659.98161316 C1025.56751175 664.57410015 1024.36250956 669.16704582 1023.15942383 673.76049805 C1019.89512454 686.21621373 1016.57191617 698.64438683 1012.9960022 711.01455688 C1011.16285088 717.37198531 1009.48399615 723.75388914 1007.9375 730.1875 C1006.32607007 736.85795922 1004.60416641 743.48656182 1002.75 750.09375 C1000.64985682 757.58220832 998.63751167 765.09149558 996.66015625 772.61328125 C996.36781601 773.72483078 996.07547577 774.83638031 995.77427673 775.98161316 C994.56751175 780.57410015 993.36250956 785.16704582 992.15942383 789.76049805 C988.89512454 802.21621373 985.57191617 814.64438683 981.9960022 827.01455688 C980.16285088 833.37198531 978.48399615 839.75388914 976.9375 846.1875 C975.32927535 852.84469104 973.61179161 859.46052722 971.76171875 866.0546875 C968.32502144 878.31123841 965.11321654 890.62735276 961.875 902.9375 C960.94125035 906.48395764 960.00714804 910.03032175 959.07254028 913.57655334 C958.49652579 915.76247293 957.92102765 917.94852867 957.34616089 920.13475037 C957.08223541 921.13692093 956.81830994 922.13909149 956.54638672 923.17163086 C956.20593826 924.4658622 956.20593826 924.4658622 955.85861206 925.78623962 C954.59142579 930.52928157 953.29174858 935.26358854 952 940 C819.01 940 686.02 940 549 940 C551.95823877 926.68792553 555.18057174 913.48903411 559.12426758 900.43334961 C560.99573269 894.17201002 562.57087258 887.85098177 564.12719727 881.50512695 C565.65525139 875.30183436 567.31982022 869.14845456 569.0546875 863.00024414 C570.78164649 856.85331598 572.40076266 850.68127612 574 844.5 C575.94440529 836.9931188 577.94536432 829.50739329 580.03955078 822.04101562 C581.85996155 815.53852556 583.62236883 809.02105979 585.375 802.5 C585.67067871 801.40042969 585.96635742 800.30085938 586.27099609 799.16796875 C587.78219295 793.5440003 589.28925602 787.9189426 590.79296875 782.29296875 C593.72207084 771.35153183 596.7150976 760.43710759 599.86914062 749.55834961 C601.80487453 742.82285191 603.51378257 736.04415165 605.17626953 729.23681641 C606.48020627 723.94473633 607.92343328 718.71696913 609.5 713.5 C611.59922092 706.55150497 613.39843052 699.55410774 615.12719727 692.50512695 C616.65525139 686.30183436 618.31982022 680.14845456 620.0546875 674.00024414 C621.78164649 667.85331598 623.40076266 661.68127612 625 655.5 C626.94440529 647.9931188 628.94536432 640.50739329 631.03955078 633.04101562 C632.85996155 626.53852556 634.62236883 620.02105979 636.375 613.5 C636.67067871 612.40042969 636.96635742 611.30085938 637.27099609 610.16796875 C638.78219295 604.5440003 640.28925602 598.9189426 641.79296875 593.29296875 C644.72207084 582.35153183 647.7150976 571.43710759 650.86914062 560.55834961 C652.80487453 553.82285191 654.51378257 547.04415165 656.17626953 540.23681641 C657.48020627 534.94473633 658.92343328 529.71696913 660.5 524.5 C662.59922092 517.55150497 664.39843052 510.55410774 666.12719727 503.50512695 C667.65435403 497.30547729 669.31627212 491.15519563 671.05249023 485.01123047 C672.81100205 478.75889613 674.44281606 472.47706075 676.0625 466.1875 C677.96629491 458.7986584 679.97724385 451.48872522 682.3359375 444.23046875 C683.09511512 442.06839569 683.09511512 442.06839569 683 440 C682.35675781 440.825 681.71351563 441.65 681.05078125 442.5 C675.92933907 449.05175487 670.75819219 455.55736058 665.5 462 C661.45022347 466.96236031 657.44194911 471.95153886 653.5 477 C649.0179989 482.74010668 644.44043443 488.39693246 639.8359375 494.0390625 C636.34469917 498.32451618 632.90181112 502.64329453 629.5 507 C625.0179989 512.74010668 620.44043443 518.39693246 615.8359375 524.0390625 C612.34469917 528.32451618 608.90181112 532.64329453 605.5 537 C601.0179989 542.74010668 596.44043443 548.39693246 591.8359375 554.0390625 C588.34469917 558.32451618 584.90181112 562.64329453 581.5 567 C577.0179989 572.74010668 572.44043443 578.39693246 567.8359375 584.0390625 C564.34469917 588.32451618 560.90181112 592.64329453 557.5 597 C553.0179989 602.74010668 548.44043443 608.39693246 543.8359375 614.0390625 C540.34469917 618.32451618 536.90181112 622.64329453 533.5 627 C529.0179989 632.74010668 524.44043443 638.39693246 519.8359375 644.0390625 C516.34469917 648.32451618 512.90181112 652.64329453 509.5 657 C505.0179989 662.74010668 500.44043443 668.39693246 495.8359375 674.0390625 C492.34469917 678.32451618 488.90181112 682.64329453 485.5 687 C481.0179989 692.74010668 476.44043443 698.39693246 471.8359375 704.0390625 C468.34469917 708.32451618 464.90181112 712.64329453 461.5 717 C457.0179989 722.74010668 452.44043443 728.39693246 447.8359375 734.0390625 C444.34469917 738.32451618 440.90181112 742.64329453 437.5 747 C433.0179989 752.74010668 428.44043443 758.39693246 423.8359375 764.0390625 C420.34469917 768.32451618 416.90181112 772.64329453 413.5 777 C409.027295 782.72820114 404.45966385 788.37364966 399.86450195 794.00390625 C394.48943385 800.60149772 389.23244842 807.28904412 384 814 C383.34 813.67 382.68 813.34 382 813 C381.30629138 810.8880132 380.72353603 808.73943369 380.1875 806.58203125 C380.0178624 805.9103038 379.84822479 805.23857635 379.67344666 804.54649353 C379.30371549 803.07880256 378.93770985 801.61016938 378.57492065 800.14074707 C377.79201127 796.97021133 376.99147453 793.80420941 376.19187927 790.6378479 C375.77070195 788.96943455 375.35044166 787.30078947 374.93104553 785.63192749 C372.87263979 777.45147712 370.72859923 769.29449208 368.57006836 761.13998413 C365.3401888 748.93677988 362.14252987 736.72599452 359 724.5 C356.04108017 712.98899767 353.03181466 701.49199945 350 690 C346.63995193 677.26384199 343.31834509 664.51892785 340.0390625 651.76171875 C337.39648766 641.49795806 334.7035818 631.24784297 332 621 C328.63995193 608.26384199 325.31834509 595.51892785 322.0390625 582.76171875 C319.39648766 572.49795806 316.7035818 562.24784297 314 552 C310.96818521 540.50800006 307.9589796 529.01098725 305 517.5 C301.37551118 503.40168208 297.67420116 489.32420561 293.96328735 475.2484436 C293.75884003 474.47294159 293.5543927 473.69743958 293.34375 472.8984375 C293.14228363 472.13429535 292.94081726 471.3701532 292.73324585 470.58285522 C290.13584595 460.72703346 287.56512629 450.86426614 285 441 C280.57592799 454.9661881 276.86505396 469.0811823 273.25488281 483.27368164 C271.171156 491.46233653 269.04705978 499.63265226 266.74194336 507.76220703 C265.07711959 513.65334281 263.53381286 519.57353225 262 525.5 C260.26369629 532.20389434 258.49904162 538.8957501 256.625 545.5625 C254.38858231 553.52319141 252.25000007 561.5089225 250.125 569.5 C249.9535849 570.14450104 249.7821698 570.78900208 249.6055603 571.45303345 C249.43368195 572.0992868 249.26180359 572.74554016 249.0847168 573.41137695 C248.73747665 574.71696208 248.39022731 576.02254477 248.04296875 577.328125 C247.87101486 577.97468552 247.69906097 578.62124603 247.52189636 579.28739929 C245.83907242 585.61149848 244.14045082 591.93129569 242.4375 598.25 C242.15350342 599.30421143 241.86950684 600.35842285 241.5769043 601.44458008 C240.1263966 606.82693338 238.67343572 612.20861824 237.21875 617.58984375 C234.39387101 628.04892539 231.59398984 638.51284391 228.875 649 C225.88394902 660.52422872 222.71341048 671.99177961 219.44921875 683.44140625 C215.69548806 696.66125746 212.18311146 709.92997676 208.78634644 723.2449646 C206.52476119 732.10973053 204.23715588 740.96101922 201.74169922 749.76342773 C200.07671339 755.65408727 198.53370842 761.57393581 197 767.5 C195.26369629 774.20389434 193.49904162 780.8957501 191.625 787.5625 C189.38858115 795.52319553 187.25028075 803.5089945 185.125 811.5 C184.77825123 812.80306317 184.43149013 814.10612306 184.0847168 815.40917969 C183.56373221 817.36706378 183.04277298 819.32495461 182.52189636 821.28286743 C175.18163828 848.86971312 175.18163828 848.86971312 171.47827148 861.92822266 C168.27536272 873.22408914 165.27907069 884.56197155 162.375 895.9375 C154.80237398 925.59287805 154.80237398 925.59287805 150 940 C17.67 940 -114.66 940 -251 940 C-249.87486144 929.87375293 -249.87486144 929.87375293 -248.6171875 925.3125 C-248.20218994 923.78906982 -248.20218994 923.78906982 -247.77880859 922.23486328 C-247.48055176 921.1673584 -247.18229492 920.09985352 -246.875 919 C-246.5651416 917.86933105 -246.2552832 916.73866211 -245.93603516 915.57373047 C-243.49660041 906.69891663 -240.9902529 897.8426307 -238.48803711 888.98535156 C-236.46804712 881.79279921 -234.61429123 874.57223326 -232.84326172 867.31494141 C-231.15073967 860.44382777 -229.21013201 853.65694203 -227.23242188 846.86328125 C-225.25588004 840.02414164 -223.51058699 833.1445062 -221.82202148 826.22949219 C-220.53876389 821.02263476 -219.11934317 815.88122171 -217.5625 810.75 C-215.17789272 802.8776844 -213.19615771 794.92267365 -211.23071289 786.93676758 C-209.56408355 780.18854747 -207.78645319 773.48521576 -205.89453125 766.79711914 C-204.18141324 760.7186873 -202.58152965 754.61387651 -201 748.5 C-199.03965838 740.92668786 -197.01290895 733.37814731 -194.89453125 725.84765625 C-193.18828012 719.7507971 -191.58660584 713.62896977 -190 707.5 C-188.03968844 699.9274259 -186.0147252 692.37910679 -183.89453125 684.84985352 C-182.18136108 678.73304488 -180.58589558 672.58837991 -179 666.4375 C-177.28087318 659.77424736 -175.49545721 653.14831341 -173.5 646.5625 C-171.15960388 638.83069943 -169.2049893 631.01632901 -167.31835938 623.16235352 C-165.89966795 617.33123202 -164.30794202 611.57635702 -162.58984375 605.828125 C-160.22914485 597.92001318 -158.1340721 589.96184754 -156.1192627 581.95950317 C-153.26145386 570.61833799 -150.31379703 559.32047918 -147.02758789 548.09472656 C-145.13984132 541.60852158 -143.49548669 535.07772828 -141.89355469 528.51586914 C-140.18377073 521.57788216 -138.22977136 514.72418442 -136.23266602 507.86425781 C-134.25612232 501.024769 -132.51066709 494.1448342 -130.82202148 487.22949219 C-129.53876389 482.02263476 -128.11934317 476.88122171 -126.5625 471.75 C-124.17789272 463.8776844 -122.19615771 455.92267365 -120.23071289 447.93676758 C-118.56408355 441.18854747 -116.78645319 434.48521576 -114.89453125 427.79711914 C-113.18141324 421.7186873 -111.58152965 415.61387651 -110 409.5 C-108.03965838 401.92668786 -106.01290895 394.37814731 -103.89453125 386.84765625 C-102.18828012 380.7507971 -100.58660584 374.62896977 -99 368.5 C-97.03950714 360.92672555 -95.01290981 353.37815034 -92.89453125 345.84765625 C-91.18828012 339.7507971 -89.58660584 333.62896977 -88 327.5 C-86.03968844 319.9274259 -84.0147252 312.37910679 -81.89453125 304.84985352 C-79.93272138 297.84528634 -78.11033119 290.80565108 -76.31835938 283.75585938 C-74.86092283 278.08622594 -73.26351705 272.47182124 -71.58984375 266.86328125 C-69.01579283 258.21483434 -66.76137236 249.50015185 -64.5625 240.75 C-61.29560684 227.75045682 -57.68514175 214.89799612 -54 202 C113.31 201.505 113.31 201.505 284 201 C271.95338831 192.13797787 271.95338831 192.13797787 259.6875 183.625 C253.38147563 179.35085981 247.1566531 174.98653675 241 170.5 C234.90357987 166.05835109 228.74125943 161.73568554 222.5 157.5 C216.34583258 153.321993 210.26346708 149.06563755 204.25 144.6875 C196.39811896 138.97156793 188.44569024 133.40996039 180.46459961 127.8762207 C174.7299539 123.89982321 169.00854628 119.90649796 163.3125 115.875 C157.22155699 111.56427252 151.11554525 107.27575822 145 103 C135.29089443 96.21031179 125.61031273 89.38088368 115.93652344 82.54101562 C106.78837414 76.07384826 97.62345726 69.63142578 88.44213867 63.21142578 C82.42742901 59.00396642 76.42720006 54.77650817 70.43359375 50.5390625 C64.96693091 46.6766353 59.48547834 42.83564745 54 39 C47.1391422 34.20263684 40.29117862 29.38769627 33.45556641 24.55444336 C26.93934998 19.95011093 20.40232599 15.37568264 13.86132812 10.80664062 C12.29952706 9.71503191 10.73860656 8.62216188 9.17871094 7.52783203 C7.74169428 6.52011685 6.30228541 5.51580327 4.86035156 4.51513672 C3.22251549 3.36832275 1.60829081 2.18789308 0 1 C0 0.67 0 0.34 0 0 Z " fill="#2E68B1" transform="translate(565,571)"/>
</svg>
